<?xml version="1.0" standalone="yes"?>
<svg xmlns="http://www.w3.org/2000/svg" width="512" height="512">
<path style="fill:#010101; stroke:none;" d="M0 0L0 512L512 512L512 0L0 0z"/>
<path style="fill:#895fdd; stroke:none;" d="M32 375L80 328L172 236L264 144L311 96L122 96C96.4407 96 64.6711 89.918 45.0401 110.015C25.9994 129.507 32 161.095 32 186L32 375z"/>
<path style="fill:#6547e0; stroke:none;" d="M408 296C394.837 296 371.123 300.524 360.004 292.428C346.85 282.85 350.38 248.652 352.289 234C353.056 228.121 355.006 223.081 360.005 219.514C367.266 214.332 378.602 216 387 216L448 216L448 256C457.639 249.21 473.667 235.611 478.972 225C483.043 216.858 480 201.026 480 192C480 162.953 488.162 121.578 459 103.468C443.792 94.0233 427.142 96 410 96L346 96C335.686 96 324.189 94.5634 314 96.1481C306.277 97.3494 299.25 107.75 294 113L246 161L94 313L51 356C45.7708 361.229 35.9237 367.938 33.3387 374.985C28.532 388.089 47.1737 405.958 57 410.88C69.787 417.285 83.1085 416 97 416L159 416L249 416C260.214 416 277.473 419.278 288 415.397C300.514 410.783 313.611 391.389 323 382L379 326C388.6 316.4 400.177 307.105 408 296z"/>
<path style="fill:#895fdd; stroke:none;" d="M451 99L452 100L451 99z"/>
<path style="fill:#9636f4; stroke:none;" d="M453 100L454 101L453 100M455 101L456 102L455 101z"/>
<path style="fill:#3d2ee3; stroke:none;" d="M474 120L475 121L474 120M475 122L476 123L475 122z"/>
<path style="fill:#9636f4; stroke:none;" d="M35 124L36 125L35 124z"/>
<path style="fill:#895fdd; stroke:none;" d="M476 124L477 125L476 124z"/>
<path style="fill:#010101; stroke:none;" d="M448 296L448 216L388 216C379.301 216 367.783 214.205 360.015 219.008C354.686 222.304 352.767 228.058 352.171 234C350.778 247.875 350.778 264.125 352.171 278C352.767 283.942 354.686 289.696 360.015 292.992C367.783 297.795 379.301 296 388 296L448 296z"/>
<path style="fill:#9636f4; stroke:none;" d="M360 218L361 219L360 218M354 224L355 225L354 224z"/>
<path style="fill:#3d2ee3; stroke:none;" d="M479 225C470.346 233.654 452.859 245.457 448.603 257C444.719 267.536 448 284.771 448 296C436.771 296 419.536 292.719 409 296.603C396.486 301.217 383.389 320.611 374 330L318 386C308.4 395.6 296.823 404.895 289 416L400 416C416.272 416 436.913 419.443 452 412.37C480.533 398.993 480 373.115 480 346L480 273C480 259.485 484.206 237.407 479 225z"/>
<path style="fill:#6547e0; stroke:none;" d="M394 240.653C374.094 246.904 385.607 277.786 405.996 271.347C425.811 265.09 414.311 234.274 394 240.653z"/>
<path style="fill:#3d2ee3; stroke:none;" d="M405 240L406 241L405 240M415 250L416 251L415 250M412 266L413 267L412 266M353 285L354 286L353 285M354 287L355 288L354 287M362 294L363 295L362 294M367 295L368 296L367 295z"/>
<path style="fill:#895fdd; stroke:none;" d="M32.3333 376.667L32.6667 377.333L32.3333 376.667M33 379L34 380L33 379M33 381L34 382L33 381M34 384L35 385L34 384z"/>
<path style="fill:#3d2ee3; stroke:none;" d="M35 387L36 388L35 387z"/>
<path style="fill:#6547e0; stroke:none;" d="M475 389L476 390L475 389M474 391L475 392L474 391z"/>
<path style="fill:#895fdd; stroke:none;" d="M41 397L42 398L41 397z"/>
<path style="fill:#6547e0; stroke:none;" d="M455 410L456 411L455 410z"/>
<path style="fill:#895fdd; stroke:none;" d="M58 411L59 412L58 411z"/>
<path style="fill:#6547e0; stroke:none;" d="M453 411L454 412L453 411z"/>
<path style="fill:#3d2ee3; stroke:none;" d="M60 412L61 413L60 412z"/>
</svg>
